<svg width="21" height="22" viewBox="0 0 21 22" fill="none" xmlns="http://www.w3.org/2000/svg">
<path d="M10.5 0C4.6996 0 0 4.74647 0 10.6047C0 16.463 4.6996 21.2094 10.5 21.2094C16.3004 21.2094 21 16.463 21 10.6047C21 4.74647 16.3004 0 10.5 0ZM10.5 19.1569C5.83004 19.1569 2.03226 15.3213 2.03226 10.6047C2.03226 5.88819 5.83004 2.05253 10.5 2.05253C15.17 2.05253 18.9677 5.88819 18.9677 10.6047C18.9677 15.3213 15.17 19.1569 10.5 19.1569ZM10.5 3.76297C6.76573 3.76297 3.72581 6.8332 3.72581 10.6047H5.08065C5.08065 7.5858 7.51089 5.13132 10.5 5.13132V3.76297ZM10.5 6.84176C8.44234 6.84176 6.77419 8.52654 6.77419 10.6047C6.77419 12.6829 8.44234 14.3677 10.5 14.3677C12.5577 14.3677 14.2258 12.6829 14.2258 10.6047C14.2258 8.52654 12.5577 6.84176 10.5 6.84176ZM10.5 11.9731C9.7506 11.9731 9.14516 11.3616 9.14516 10.6047C9.14516 9.84785 9.7506 9.23637 10.5 9.23637C11.2494 9.23637 11.8548 9.84785 11.8548 10.6047C11.8548 11.3616 11.2494 11.9731 10.5 11.9731Z" fill="#3C57E4"/>
</svg>
