<svg width="20" height="18" viewBox="0 0 20 18" fill="none" xmlns="http://www.w3.org/2000/svg">
<path d="M17.9062 1.26257C15.6484 -0.635862 12.1602 -0.350706 10 1.84851C7.83984 -0.350706 4.35156 -0.639768 2.09375 1.26257C-0.843745 3.73523 -0.414058 7.76648 1.67969 9.90319L8.53125 16.8837C8.92187 17.2821 9.44531 17.5047 10 17.5047C10.5586 17.5047 11.0781 17.286 11.4687 16.8876L18.3203 9.9071C20.4101 7.77038 20.8476 3.73913 17.9062 1.26257ZM16.9844 8.58679L10.1328 15.5673C10.0391 15.661 9.96094 15.661 9.86719 15.5673L3.01563 8.58679C1.58985 7.13366 1.30078 4.38367 3.30078 2.70007C4.82031 1.42273 7.16406 1.61414 8.63281 3.11023L10 4.50476L11.3672 3.11023C12.8437 1.60632 15.1875 1.42273 16.6992 2.69617C18.6953 4.37976 18.3984 7.14538 16.9844 8.58679Z" fill="#3C57E4"/>
</svg>
