<svg width="18" height="21" viewBox="0 0 18 21" fill="none" xmlns="http://www.w3.org/2000/svg">
<path d="M12.6 12.1983C11.4469 12.1983 10.8924 12.8403 9 12.8403C7.10759 12.8403 6.55714 12.1983 5.4 12.1983C2.41875 12.1983 0 14.6139 0 17.5912V18.6185C0 19.6818 0.863839 20.5445 1.92857 20.5445H16.0714C17.1362 20.5445 18 19.6818 18 18.6185V17.5912C18 14.6139 15.5813 12.1983 12.6 12.1983ZM16.0714 18.6185H1.92857V17.5912C1.92857 15.6812 3.4875 14.1243 5.4 14.1243C5.98661 14.1243 6.93884 14.7664 9 14.7664C11.0772 14.7664 12.0094 14.1243 12.6 14.1243C14.5125 14.1243 16.0714 15.6812 16.0714 17.5912V18.6185ZM9 11.5563C12.1942 11.5563 14.7857 8.96816 14.7857 5.77814C14.7857 2.58813 12.1942 0 9 0C5.8058 0 3.21429 2.58813 3.21429 5.77814C3.21429 8.96816 5.8058 11.5563 9 11.5563ZM9 1.92605C11.1254 1.92605 12.8571 3.65548 12.8571 5.77814C12.8571 7.90081 11.1254 9.63024 9 9.63024C6.87455 9.63024 5.14286 7.90081 5.14286 5.77814C5.14286 3.65548 6.87455 1.92605 9 1.92605Z" fill="#3C57E4"/>
</svg>
